<svg version="1.2" xmlns="http://www.w3.org/2000/svg" viewBox="0 0 250 150" width="250" height="150">
	<title>New Project</title>
	<style>
		.s0 { fill: #5340ff } 
		.s1 { fill: #000000 } 
	</style>
	<path id="&lt;Path&gt;" class="s0" d="m91.5 115.2c0-12.7 3.8-25 34.4-53.6-2.9 20.9 5.7 32 14.7 40.3 3.2-7.9 1.3-15.8 1.3-15.8 2.3 1.9 15.8 12.2 15.9 29 0-0.1 0 0 0 0.1 0 9.5-4 18.1-10.4 24.1-2.3 2.2-0.9 6.1 2.3 6.1h39.7c3.5 0 5.8-3.5 4.5-6.7l-52.7-130.7c-1-2.4-3.4-4-6-4h-21.1c-2.7 0-5 1.6-6 4l-52.7 130.7c-1.3 3.2 1 6.7 4.5 6.7h39.7c3.1 0 4.6-3.9 2.3-6.1-6.4-6-10.4-14.6-10.4-24.1z"/>
	<path id="&lt;Path&gt;" class="s1" d="m132 131h-0.1c0.1 0.3 0.1 0.2 0.1 0z"/>
</svg>